<svg width="48" height="54" viewBox="0 0 48 54" fill="none" xmlns="http://www.w3.org/2000/svg">
<path d="M43.5 42V25.5H44.01C44.6704 25.5 45.3037 25.2377 45.7707 24.7707C46.2377 24.3037 46.5 23.6704 46.5 23.01V15.99C46.5 15.3296 46.2377 14.6963 45.7707 14.2293C45.3037 13.7623 44.6704 13.5 44.01 13.5H43.5V9C43.5 7.01088 42.7098 5.10322 41.3033 3.6967C39.8968 2.29018 37.9891 1.5 36 1.5H12C10.0109 1.5 8.10322 2.29018 6.6967 3.6967C5.29018 5.10322 4.5 7.01088 4.5 9V13.5H3.96C3.30757 13.5 2.68186 13.7592 2.22052 14.2205C1.75918 14.6819 1.5 15.3076 1.5 15.96V23.04C1.5 24.3994 2.60057 25.5 3.96 25.5H4.5V42L4.49999 42.0421C4.49991 42.4242 4.4998 42.9024 4.55953 43.3593C4.62323 43.8465 4.76721 44.4295 5.14018 44.9703C5.68801 45.7647 6.51262 46.1854 7.5 46.3737V49.5C7.5 50.2957 7.81607 51.0587 8.37868 51.6213C8.94129 52.1839 9.70435 52.5 10.5 52.5H16.5C17.2956 52.5 18.0587 52.1839 18.6213 51.6213C19.1839 51.0587 19.5 50.2957 19.5 49.5V46.5H28.5V49.5C28.5 50.2956 28.8161 51.0587 29.3787 51.6213C29.9413 52.1839 30.7044 52.5 31.5 52.5H37.5C38.2956 52.5 39.0587 52.1839 39.6213 51.6213C40.1839 51.0587 40.5 50.2956 40.5 49.5V46.3737C41.4874 46.1854 42.312 45.7647 42.8598 44.9703C43.2328 44.4295 43.3768 43.8465 43.4405 43.3593C43.5002 42.9024 43.5001 42.4243 43.5 42.0421L43.5 42ZM12 37.5C11.6022 37.5 11.2206 37.342 10.9393 37.0607C10.658 36.7794 10.5 36.3978 10.5 36C10.5 35.6022 10.658 35.2206 10.9393 34.9393C11.2206 34.658 11.6022 34.5 12 34.5C12.3978 34.5 12.7794 34.658 13.0607 34.9393C13.342 35.2206 13.5 35.6022 13.5 36C13.5 36.3978 13.342 36.7794 13.0607 37.0607C12.7794 37.342 12.3978 37.5 12 37.5ZM10.5 25.5V13.5H37.5V25.5H10.5ZM36 37.5C35.6022 37.5 35.2206 37.342 34.9393 37.0607C34.658 36.7794 34.5 36.3978 34.5 36C34.5 35.6022 34.658 35.2206 34.9393 34.9393C35.2206 34.658 35.6022 34.5 36 34.5C36.3978 34.5 36.7794 34.658 37.0607 34.9393C37.342 35.2206 37.5 35.6022 37.5 36C37.5 36.3978 37.342 36.7794 37.0607 37.0607C36.7794 37.342 36.3978 37.5 36 37.5Z" stroke="white" stroke-width="3"/>
</svg>
