<svg width="131" height="54" viewBox="0 0 131 54" fill="none" xmlns="http://www.w3.org/2000/svg">
<path d="M9.68812 1.8125H29.0619C31.3652 1.81541 33.5734 2.7317 35.2021 4.36041C36.8309 5.98926 37.7472 8.19766 37.75 10.5012V33.7487C37.7431 35.615 37.134 37.4292 36.0133 38.9216C34.8922 40.4146 33.3189 41.5057 31.5277 42.0325L30.4469 42.3504L30.8907 43.3858L33.806 50.1875H31.766L28.7049 43.0436L28.4451 42.4375H27.7857H10.9643H10.3049L10.0451 43.0436L6.984 50.1875H4.94402L7.85926 43.3858L8.30306 42.3504L7.22228 42.0325C5.43108 41.5057 3.85785 40.4146 2.73671 38.9216C1.6159 37.4291 1.00681 35.6147 1 33.7482V10.5006C1.00291 8.19729 1.9192 5.98912 3.54791 4.36041C5.17662 2.7317 7.38479 1.81541 9.68812 1.8125ZM29.0655 3.6875H29.0625H9.6875V4.6875L9.68453 3.6875C8.27982 3.69168 6.91085 4.13059 5.7656 4.94398C4.62034 5.75738 3.75496 6.90535 3.2883 8.23028L2.81906 9.5625H4.2315H34.5185H35.9309L35.4617 8.23028C34.995 6.90535 34.1297 5.75738 32.9844 4.94398C31.8391 4.13059 30.4702 3.69168 29.0655 3.6875ZM34.875 32.8125H35.875V31.8125V27.9375V26.9375H34.875H3.875H2.875V27.9375V31.8125V32.8125H3.875H8.6875V34.6875H4.2315H2.81906L3.2883 36.0197C3.75496 37.3446 4.62034 38.4926 5.7656 39.306C6.91085 40.1194 8.27982 40.5583 9.68453 40.5625H9.6875L29.0625 40.5625L29.0655 40.5625C30.4702 40.5583 31.8391 40.1194 32.9844 39.306C34.1297 38.4926 34.995 37.3446 35.4617 36.0197L35.9309 34.6875H34.5185H30.0625V32.8125H34.875ZM34.875 25.0625H35.875V24.0625V12.4375V11.4375H34.875H3.875H2.875V12.4375V24.0625V25.0625H3.875H34.875Z" stroke="white" stroke-width="2"/>
<path d="M126.5 42V25.5H127.01C127.67 25.5 128.304 25.2377 128.771 24.7707C129.238 24.3037 129.5 23.6704 129.5 23.01V15.99C129.5 15.3296 129.238 14.6963 128.771 14.2293C128.304 13.7623 127.67 13.5 127.01 13.5H126.5V9C126.5 7.01088 125.71 5.10322 124.303 3.6967C122.897 2.29018 120.989 1.5 119 1.5H95C93.0109 1.5 91.1032 2.29018 89.6967 3.6967C88.2902 5.10322 87.5 7.01088 87.5 9V13.5H86.96C86.3076 13.5 85.6819 13.7592 85.2205 14.2205C84.7592 14.6819 84.5 15.3076 84.5 15.96V23.04C84.5 24.3994 85.6006 25.5 86.96 25.5H87.5V42L87.5 42.0421C87.4999 42.4242 87.4998 42.9024 87.5595 43.3593C87.6232 43.8465 87.7672 44.4295 88.1402 44.9703C88.688 45.7647 89.5126 46.1854 90.5 46.3737V49.5C90.5 50.2957 90.8161 51.0587 91.3787 51.6213C91.9413 52.1839 92.7044 52.5 93.5 52.5H99.5C100.296 52.5 101.059 52.1839 101.621 51.6213C102.184 51.0587 102.5 50.2957 102.5 49.5V46.5H111.5V49.5C111.5 50.2956 111.816 51.0587 112.379 51.6213C112.941 52.1839 113.704 52.5 114.5 52.5H120.5C121.296 52.5 122.059 52.1839 122.621 51.6213C123.184 51.0587 123.5 50.2956 123.5 49.5V46.3737C124.487 46.1854 125.312 45.7647 125.86 44.9703C126.233 44.4295 126.377 43.8465 126.44 43.3593C126.5 42.9024 126.5 42.4243 126.5 42.0421L126.5 42ZM95 37.5C94.6022 37.5 94.2206 37.342 93.9393 37.0607C93.658 36.7794 93.5 36.3978 93.5 36C93.5 35.6022 93.658 35.2206 93.9393 34.9393C94.2206 34.658 94.6022 34.5 95 34.5C95.3978 34.5 95.7794 34.658 96.0607 34.9393C96.342 35.2206 96.5 35.6022 96.5 36C96.5 36.3978 96.342 36.7794 96.0607 37.0607C95.7794 37.342 95.3978 37.5 95 37.5ZM93.5 25.5V13.5H120.5V25.5H93.5ZM119 37.5C118.602 37.5 118.221 37.342 117.939 37.0607C117.658 36.7794 117.5 36.3978 117.5 36C117.5 35.6022 117.658 35.2206 117.939 34.9393C118.221 34.658 118.602 34.5 119 34.5C119.398 34.5 119.779 34.658 120.061 34.9393C120.342 35.2206 120.5 35.6022 120.5 36C120.5 36.3978 120.342 36.7794 120.061 37.0607C119.779 37.342 119.398 37.5 119 37.5Z" stroke="white" stroke-width="3"/>
<path d="M68.6241 29.6768H63.6129V34.5728H59.8977V29.6768H54.9153V26.1632H59.8977V21.2672H63.6129V26.1632H68.6241V29.6768Z" fill="white"/>
</svg>
