<svg width="48" height="44" viewBox="0 0 48 44" fill="none" xmlns="http://www.w3.org/2000/svg">
<path d="M44.2435 15.7877L44.1024 15.3566L40.8192 5.3246L40.8189 5.32357C40.4067 4.05958 39.615 2.96331 38.5596 2.1884C37.5046 1.4137 36.2389 0.998829 34.9425 1L34.9416 1L13.0584 1H13.0575C11.7611 0.998829 10.4955 1.4137 9.44037 2.1884C8.38502 2.96331 7.5933 4.05958 7.18113 5.32357L7.1808 5.3246L3.8976 15.3566L3.75652 15.7877L3.33926 15.9655C2.6501 16.2592 2.05861 16.7551 1.64127 17.3938C1.2238 18.0326 0.999999 18.7848 1 19.5556V31.7778C1 33.2124 1.76914 34.4529 2.91006 35.1294L3.4 35.4199V35.9896V41.5556C3.4 41.9445 3.55187 42.3139 3.81651 42.5835C4.08053 42.8524 4.43468 43 4.8 43H7.2C7.56532 43 7.91947 42.8524 8.18349 42.5835C8.44813 42.3139 8.6 41.9445 8.6 41.5556V36.6667V35.6667H9.6H38.4H39.4V36.6667V41.5556C39.4 41.9445 39.5519 42.3139 39.8165 42.5835C40.0805 42.8524 40.4347 43 40.8 43H43.2C43.5653 43 43.9195 42.8524 44.1835 42.5835C44.4481 42.3139 44.6 41.9445 44.6 41.5556V35.9896V35.4156L45.0956 35.1261C45.6706 34.7902 46.1507 34.3047 46.4859 33.7165C46.8209 33.1286 46.9986 32.4599 47 31.7778C47 31.7772 47 31.7767 47 31.7762M44.2435 15.7877L45.0528 15.0456C45.9259 15.4176 46.6715 16.0443 47.1958 16.8467C47.7202 17.6492 48 18.5916 48 19.5556V31.7778L47 31.7762M44.2435 15.7877L44.6607 15.9655C45.3499 16.2592 45.9414 16.7551 46.3587 17.3938C46.7762 18.0326 47 18.7848 47 19.5556L47 31.7762M44.2435 15.7877L47 31.7762M41.2509 15.6667H39.8712H8.1288H6.74947L7.17838 14.3557L9.83033 6.25008C9.83035 6.25003 9.83036 6.24998 9.83038 6.24994C10.0538 5.56673 10.4838 4.96921 11.0627 4.54419C11.642 4.11899 12.3402 3.88877 13.0584 3.88889C13.0585 3.88889 13.0586 3.88889 13.0586 3.88889H34.9392C36.4136 3.88889 37.7086 4.84386 38.1671 6.24968L41.2509 15.6667ZM41.2509 15.6667L40.8215 14.3555L38.1676 6.25122L41.2509 15.6667ZM6.63295 29.9749C7.19247 30.2112 7.79285 30.3331 8.39966 30.3333C9.62596 30.3337 10.7984 29.8378 11.6601 28.9607C12.5212 28.0843 13.002 26.8991 13.0024 25.667C13.0028 24.4349 12.5228 23.2494 11.6623 22.3724C10.8012 21.4947 9.62904 20.998 8.40274 20.9976C7.79593 20.9973 7.19546 21.1189 6.63579 21.3548C6.07616 21.5907 5.56884 21.936 5.14229 22.3702C4.71577 22.8043 4.37834 23.3187 4.14838 23.8836C3.91843 24.4485 3.8002 25.0534 3.8 25.6639C3.7998 26.2744 3.91764 26.8793 4.14722 27.4444C4.37681 28.0094 4.7139 28.5241 5.14012 28.9585C5.56638 29.393 6.07348 29.7386 6.63295 29.9749ZM37.833 29.9749C38.3925 30.2112 38.9929 30.3331 39.5997 30.3333C40.826 30.3337 41.9984 29.8378 42.8601 28.9607C43.7212 28.0843 44.202 26.8991 44.2024 25.667C44.2028 24.4349 43.7228 23.2494 42.8623 22.3724C42.0012 21.4947 40.829 20.998 39.6027 20.9976C38.9959 20.9973 38.3955 21.1189 37.8358 21.3548C37.2762 21.5907 36.7688 21.936 36.3423 22.3702C35.9158 22.8043 35.5783 23.3187 35.3484 23.8836C35.1184 24.4485 35.0002 25.0534 35 25.6639C34.9998 26.2744 35.1176 26.8793 35.3472 27.4444C35.5768 28.0095 35.9139 28.5241 36.3401 28.9585C36.7664 29.393 37.2735 29.7386 37.833 29.9749Z" stroke="white" stroke-width="2"/>
</svg>
