<svg width="82" height="50" viewBox="0 0 82 50" fill="none" xmlns="http://www.w3.org/2000/svg">
<path fill-rule="evenodd" clip-rule="evenodd" d="M33.3295 2.00175L28.1587 3.54879L31.6024 12.5154C33.6776 12.0093 35.8685 12.3096 37.7292 13.3551C39.5898 14.4007 40.9804 16.1129 41.6177 18.1433C42.2549 20.1736 42.0911 22.3695 41.1595 24.2838C40.2279 26.1981 38.5986 27.687 36.6032 28.4474C34.6078 29.2079 32.3963 29.1826 30.419 28.3768C28.4417 27.571 26.8471 26.0453 25.9598 24.1102C25.0726 22.1751 24.9594 19.9761 25.6433 17.9608C26.3273 15.9456 27.7569 14.2655 29.6411 13.2627L27.9109 8.75751L21.9453 21.0941C21.8593 21.2713 21.7248 21.4208 21.5572 21.5253C21.3897 21.6298 21.1959 21.685 20.9982 21.6847H16.7335C16.464 23.7934 15.3982 25.7208 13.7526 27.0751C12.107 28.4295 10.0052 29.1092 7.87431 28.9761C5.74345 28.8429 3.74345 27.907 2.28081 26.3585C0.81817 24.81 0.00264894 22.7651 2.3317e-06 20.6394C-0.00158952 18.5111 0.811939 16.4623 2.27482 14.9105C3.73771 13.3586 5.73987 12.4205 7.87333 12.2872C10.0068 12.1539 12.111 12.8356 13.7573 14.1932C15.4035 15.5508 16.4679 17.4823 16.7335 19.5941H19.3583L14.2347 5.31116C14.1943 5.19843 14.1737 5.07962 14.1738 4.95994H12.599C12.3205 4.95994 12.0534 4.84981 11.8566 4.65378C11.6597 4.45775 11.549 4.19187 11.549 3.91464C11.549 3.63741 11.6597 3.37154 11.8566 3.1755C12.0534 2.97947 12.3205 2.86934 12.599 2.86934H17.3236C17.602 2.86934 17.8691 2.97947 18.066 3.1755C18.2629 3.37154 18.3735 3.63741 18.3735 3.91464C18.3735 4.19187 18.2629 4.45775 18.066 4.65378C17.8691 4.84981 17.602 4.95994 17.3236 4.95994H16.3387L18.2727 10.3505L26.8053 5.8798L25.7921 3.24251C25.7406 3.10821 25.7174 2.96476 25.724 2.82114C25.7307 2.67751 25.767 2.53679 25.8308 2.40778C25.8945 2.27877 25.9843 2.16424 26.0946 2.07135C26.2048 1.97847 26.3331 1.90922 26.4714 1.86795L32.7258 0L33.3295 2.00175V2.00175ZM18.9856 12.3397L21.056 18.1098L25.4971 8.92789L18.9856 12.3397V12.3397ZM32.6166 21.0126L30.3981 15.2352C29.0377 16.0343 28.0285 17.313 27.5704 18.818C27.1123 20.323 27.2388 21.9444 27.9248 23.361C28.6108 24.7775 29.8063 25.8857 31.2744 26.466C32.7424 27.0464 34.3758 27.0565 35.851 26.4943C37.3261 25.9322 38.5354 24.8388 39.239 23.4309C39.9426 22.023 40.0893 20.4032 39.6501 18.8927C39.2108 17.3822 38.2176 16.091 36.8672 15.2752C35.5169 14.4594 33.908 14.1783 32.3593 14.4878L34.5778 20.2662C34.6727 20.5242 34.6618 20.8089 34.5475 21.059C34.4331 21.309 34.2246 21.5041 33.9668 21.6022C33.7091 21.7003 33.4229 21.6934 33.1703 21.583C32.9176 21.4727 32.7187 21.2678 32.6166 21.0126V21.0126ZM14.6116 19.5941H8.3993C8.12085 19.5941 7.8538 19.7042 7.6569 19.9003C7.46 20.0963 7.34939 20.3622 7.34939 20.6394C7.34939 20.9166 7.46 21.1825 7.6569 21.3785C7.8538 21.5746 8.12085 21.6847 8.3993 21.6847H14.6116C14.3442 23.2318 13.5039 24.6229 12.2566 25.5833C11.0093 26.5437 9.4457 27.0037 7.87444 26.8724C6.30317 26.7412 4.83842 26.0282 3.76935 24.8742C2.70028 23.7203 2.10457 22.2093 2.09983 20.6394C2.09838 19.0658 2.69113 17.5492 3.76045 16.3904C4.82978 15.2317 6.29754 14.5154 7.87254 14.3839C9.44753 14.2523 11.0147 14.715 12.263 15.6801C13.5113 16.6452 14.3497 18.0423 14.6116 19.5941V19.5941Z" fill="white"/>
<path d="M76.7147 20.2999C76.7147 21.1751 76.367 22.0144 75.7482 22.6332C75.1293 23.2521 74.29 23.5997 73.4148 23.5997C72.5396 23.5997 71.7003 23.2521 71.0815 22.6332C70.4626 22.0144 70.1149 21.1751 70.1149 20.2999C70.1149 19.4247 70.4626 18.5854 71.0815 17.9665C71.7003 17.3477 72.5396 17 73.4148 17C74.29 17 75.1293 17.3477 75.7482 17.9665C76.367 18.5854 76.7147 19.4247 76.7147 20.2999V20.2999Z" fill="white"/>
<path d="M72.1303 37.1268L76.4144 41.3539C76.5787 41.516 76.7071 41.7108 76.7914 41.9256L79.0758 47.7458C79.2357 48.1531 79.2272 48.6074 79.0523 49.0086C78.8773 49.4097 78.5501 49.725 78.1427 49.8849C77.7353 50.0448 77.2811 50.0364 76.8799 49.8614C76.4787 49.6864 76.1635 49.3592 76.0036 48.9519L73.8471 43.4567L66.4818 36.1888C66.3038 36.0133 66.168 35.7996 66.0847 35.5639C66.0014 35.3283 65.9727 35.0768 66.0008 34.8284L66.5907 29.6146C65.1684 31.0286 64.0712 33.0159 63.2306 35.6501C63.1677 35.86 63.0637 36.0554 62.9245 36.2247C62.7853 36.394 62.6138 36.5339 62.4199 36.6362C62.226 36.7385 62.0137 36.8011 61.7954 36.8205C61.5771 36.8398 61.3571 36.8154 61.1483 36.7488C60.9395 36.6821 60.746 36.5745 60.5793 36.4323C60.4125 36.2901 60.2757 36.116 60.177 35.9204C60.0782 35.7247 60.0194 35.5113 60.0041 35.2926C59.9887 35.074 60.017 34.8545 60.0875 34.6469C61.6301 29.8126 64.1917 26.1943 68.4898 24.5353L68.5087 24.5278C69.6035 24.1211 70.7419 24.1541 71.7566 24.678C72.7309 25.182 73.4247 26.0524 73.8793 27.0275C74.0707 27.4383 74.2472 27.8219 74.4139 28.1824C74.8164 29.0553 75.1547 29.7911 75.4805 30.4363C75.9367 31.3437 76.3039 31.946 76.6668 32.3675C77.0034 32.7594 77.3375 33.0003 77.7641 33.1669C78.2227 33.3459 78.8654 33.4697 79.8578 33.4994C80.0758 33.5037 80.2908 33.5513 80.4904 33.6392C80.6899 33.7272 80.87 33.8538 81.0203 34.0118C81.1706 34.1698 81.2881 34.3561 81.3659 34.5597C81.4438 34.7634 81.4805 34.9805 81.474 35.1985C81.4674 35.4164 81.4178 35.6309 81.3278 35.8296C81.2379 36.0282 81.1094 36.2071 80.9499 36.3558C80.7904 36.5045 80.6031 36.6201 80.3986 36.6959C80.1942 36.7718 79.9767 36.8063 79.7588 36.7976C78.5667 36.7621 77.5083 36.6095 76.5637 36.2407C75.5878 35.8596 74.8181 35.2797 74.1631 34.5166C73.7506 34.0364 73.3876 33.4878 73.0494 32.8914L72.1303 37.1268V37.1268Z" fill="white"/>
<path d="M66.0008 38.6307L68.7356 41.2541L67.4767 45.5002C67.3793 45.8287 67.1821 46.1188 66.9124 46.3301L62.677 49.649C62.5064 49.7826 62.3111 49.8813 62.1023 49.9395C61.8936 49.9976 61.6754 50.0141 61.4602 49.9879C61.2451 49.9618 61.0372 49.8935 60.8484 49.787C60.6597 49.6805 60.4937 49.5379 60.3601 49.3672C60.2265 49.1966 60.1278 49.0013 60.0696 48.7925C60.0114 48.5838 59.995 48.3656 60.0211 48.1504C60.0473 47.9353 60.1156 47.7274 60.2221 47.5386C60.3286 47.3499 60.4712 47.1839 60.6418 47.0503L64.4631 44.0573L65.6139 40.1717L66.0008 38.6307V38.6307Z" fill="white"/>
<path d="M71.5 4L28 47.5" stroke="white" stroke-width="2"/>
</svg>
